<svg xmlns="http://www.w3.org/2000/svg" width="443" height="650" fill="none" viewBox="0 0 443 650">
  <path fill="#A2D9CD" d="m108.736 499.493 247.503 103.369c7.851 3.28 13.234-.28 13.234-.28l35.486-23.354c7.394-4.865-4.242-8.622-4.242-8.622L157.086 468.834s-7.166-3.496-13.102.656l-36.241 23.851s-5.628 3.381.993 6.152Z"/>
  <path fill="#225A4E" d="M142.704 42.78v445.492c0 7.986 5.384 9.438 5.384 9.438l215.221 90.117c9.676 1.655 8.575-7.547 8.575-7.547V137.112c0-9.039-5.913-10.365-5.913-10.365l-214.385-89.76s-8.882-3.714-8.882 5.794Z"/>
  <path fill="#86C5B7" d="m386.548 576.606-18.403 12.31c3.432-1.089 3.646-7.005 3.646-7.005l.1-444.404 16.015-10.896v446.626s.272 2.261-1.358 3.369Z"/>
  <path fill="#9AE9D8" d="M367.678 127.618s4.242 2.184 4.213 9.888l16.014-10.775c0-5.609-2.782-8.561-4.449-9.828l-15.778 10.715Z"/>
  <path fill="#84D9C7" d="M383.581 117.004c-.683-.575-1.348-.867-1.348-.867l-214.376-89.88s-5.393-3.137-10.828.55l-11.484 7.675s-2.842 1.524-2.611 5.942c0 0 .887-5.989 8.507-3.463l216.236 90.656 15.904-10.613Z"/>
  <path fill="#289E84" d="m160.252 69.98 198.172 83.087v418.304L156.23 487.706V69.161s1.859-.198 4.022.82Z"/>
  <path fill="#0C0F22" d="m341.766 129.831 18.004 7.628c1.061.447 1.435-.637 1.435-.637v-3.519c.197-1.217-1.128-2.302-2.635-2.948l-16.028-6.733c-1.684-.663-1.918.191-1.808 1.356l.022-.693-.007 3.831s-.227 1.314 1.017 1.715Z"/>
  <path fill="#BEC2E5" d="M365.493 588.024h.008-.008Zm-.009 0Zm-2.116-.191c-.025 0-.042-.006-.059-.006L148.088 497.71s-5.384-1.452-5.384-9.438v-17.94 17.94c0 7.986 5.384 9.438 5.384 9.438l215.221 90.117c.017 0 .034.006.059.006Z"/>
  <path fill="#22705F" d="M365.493 588.024h.009c3.89 0 5.452-2.204 6.049-4.254.213-1.064.239-1.86.239-1.86l.094-444.405v-.182c-.026-7.557-4.207-9.706-4.207-9.706l-1.8-.752-4.65 6.148c0 .096-.009.192-.017.289v3.518s-.265.746-.956.746c-.145 0-.307-.032-.486-.108l-1.451-.612-9.3 12.277 9.403 3.941V571.37l-202.192-83.665v-84.187l-13.524 17.839v66.915c0 7.986 5.384 9.438 5.384 9.438l215.221 90.117c.017 0 .034.006.059.006.026.007.043.007.06.012.751.122 1.434.179 2.057.179h.008Z"/>
  <path fill="#A6A9D5" d="M371.56 583.771c.528-1.802.328-3.49.328-3.49V137.508l-.092 444.403s-.029.796-.236 1.86Z"/>
  <path fill="#B8D3F0" d="M371.891 137.325v-.212c0-5.761-2.404-8.388-4.149-9.536l-.064.041s4.177 2.15 4.213 9.707Z"/>
  <path fill="#A6B9E4" d="m367.68 127.619.065-.043c-.989-.653-1.777-.828-1.777-.828l-.086.118 1.798.753Z"/>
  <path fill="#20AD8E" d="M358.424 571.371V153.067l-9.404-3.941-192.79 254.393v84.187l202.194 83.665Z"/>
  <path fill="#121D3E" d="M360.258 137.569c.692 0 .951-.746.951-.746v-3.518c.015-.097.022-.194.022-.289l-2.905 3.833 1.449.612c.173.076.338.108.483.108Z"/>
  <path fill="#0C0F22" d="m229.782 87.825 54.679 23.196c1.057.443 1.433-.63 1.433-.63v-3.522c.209-1.22-1.12-2.306-2.617-2.948L230.55 81.604c-1.673-.642-1.905.198-1.801 1.36l.016-.693v3.84s-.232 1.321 1.017 1.714Z"/>
  <path fill="#2E7B6A" d="M228.765 84.48c.064.426.272.975 1.017 1.216l54.68 23.201c1.056.447 1.433-.647 1.433-.647v-1.875c.032.169.032.321 0 .494v3.522s-.377 1.073-1.433.63l-54.68-23.196c-1.249-.393-1.017-1.715-1.017-1.715v-1.63Z"/>
  <path fill="#28306B" d="m228.757 82.506-.008.456c-.04-.329-.04-.62.008-.861v.405Z"/>
  <path fill="#0C0F22" d="M216.088 77.275c-1.611 1.63-1.117 4.7.607 6.209.509.464 1.335.912 2.023.975 1.966.165 3.673-1.516 3.657-3.569-.008-1.322-.461-2.547-1.392-3.434-.995-.92-2.508-1.466-3.819-.912a3.036 3.036 0 0 0-1.076.731Z"/>
  <path fill="#86C5B7" d="m280.015 244.725.016-4.528 5.739-3.37-.008 4.531-.592 223.298-5.74 3.369.585-223.3Z"/>
  <path fill="#EAEAEA" d="m116.639 175.372.009-4.528 163.386 69.355-.009 4.529-.591 223.299-163.378-69.354.583-223.301Z"/>
  <path fill="#B1AFB0" d="m280.036 240.199 5.737-3.37-163.397-69.364-5.728 3.379 163.388 69.355Z"/>
  <path fill="#E8FAF7" d="M280.097 213.917 116.726 144.56l-.078 26.284 163.388 69.355.061-26.282Z"/>
  <path fill="#84D9C7" d="m280.091 213.914 5.745-3.369-163.371-69.353-5.745 3.367 163.371 69.355Z"/>
  <path fill="#86C5B7" d="m280.033 240.198 5.736-3.37.069-26.283-5.744 3.37-.061 26.283Z"/>
  <path fill="#25B99A" d="M268.231 213.425c-4.115-1.744-7.457.633-7.481 5.334-.015 4.659 3.319 9.884 7.426 11.623 4.146 1.758 7.504-.633 7.504-5.295.015-4.689-3.311-9.914-7.449-11.662Z"/>
  <path fill="#fff" d="m267.498 222.933-2.641-.042c-.063-.021-1.216-.338-1.138 1.352v1.368l4.48 1.901 4.464 1.888.015-1.365c.086-1.618-1.051-2.259-1.106-2.306l-2.633-2.188-.74-.312-.701-.296Z"/>
  <path fill="#FDFFFE" d="M268.224 216.315c-1.143-.472-2.084.415-2.084 2.002-.007 1.584.941 3.24 2.061 3.73 1.174.485 2.091-.389 2.099-1.972 0-1.58-.917-3.261-2.076-3.76Z"/>
  <path fill="#173544" d="M176.602 182.307v2.813l39.762 16.887.008-2.817-39.77-16.883Zm-50.705 197.095v-1.637l130.638 55.445v1.643l-130.638-55.451Zm43.693 23.867.017-1.624 47.962 20.373v1.605l-47.979-20.354Zm52.767 22.401v-1.631l34.161 14.502v1.63l-34.161-14.501Z"/>
  <path fill="#fff" d="M261.737 431.037c-1.916-.809-3.458.287-3.473 2.477 0 2.14 1.541 4.567 3.442 5.369 1.917.815 3.466-.287 3.481-2.446.008-2.171-1.549-4.598-3.45-5.4Z"/>
  <path fill="#849FD9" d="m261.385 435.424-1.219-.02c-.032 0-.563-.152-.54.637v.625l2.079.884 2.071.886v-.643c.039-.739-.477-1.038-.508-1.064l-1.211-1.012-.336-.141-.336-.152Zm.357-3.041c-.539-.236-.976.178-.976.91 0 .739.437 1.509.96 1.726.531.235.96-.166.96-.911.008-.726-.413-1.515-.944-1.725Z"/>
  <path fill="#08AEEF" d="m270.174 261.159-143.818-61.035-.397 154.365 143.801 61.046.414-154.376Z"/>
  <path fill="#C1183A" d="M133.818 342.456a2.355 2.355 0 0 0-.809-.198c-.886-.059-1.574.71-1.652 1.702-.103 1.221.241 2.704.792 4 .886 2.098 2.305 4.401 4 5.778 1.686.043 3.114-1.043 4.009-2.381.567-.817.903-2.012.817-3.304-.078-1.082-.757-2.412-1.652-3.109a3.14 3.14 0 0 0-.8-.498c-.989-.418-2.03-.261-2.357.714-.318-1.246-1.342-2.285-2.348-2.704Z"/>
  <path fill="#1C3260" d="M158.807 268.646c-.178-.056-.364-.119-.542-.156a1.292 1.292 0 0 0-.203-.035 5.905 5.905 0 0 0-.66-.118c-.051 0-.102-.026-.161-.026-.127-.012-.254-.012-.39-.012-.169-.017-.355-.017-.525-.017-.161 0-.313.017-.465.017-.11.012-.229.012-.339.038a4.329 4.329 0 0 0-.508.097c-.085.021-.169.025-.246.046-.186.047-.364.11-.533.177-.059.031-.127.048-.195.068a6.561 6.561 0 0 0-.686.33c.966-.541 1.914-1.082 2.871-1.626l2.98-1.694c.203-.105.407-.207.618-.291a1 1 0 0 0 .178-.059c.161-.055.305-.114.474-.169h.059c.111-.03.212-.043.314-.072.11-.03.228-.046.347-.072l.085-.017.372-.029c.119-.009.229-.031.347-.031h.11c.187 0 .373.018.559.022.093 0 .178 0 .263.009l.093.008a.982.982 0 0 0 .186.021c.212.043.415.072.627.118.084.013.152.021.211.043l.102.013c.161.042.296.101.457.139.11.038.229.059.347.092.288.11.585.229.889.351l9.483 4.216-5.791 3.276-9.475-4.209a31.005 31.005 0 0 0-.897-.352c-.127-.037-.237-.054-.356-.096Z"/>
  <path fill="#2C5098" d="M160.099 269.167c-5.534-2.343-10.05.837-10.076 7.134l-.127 49.557c-.009 6.284 4.482 13.291 10.008 15.64l70.979 30.132c5.551 2.349 10.05-.847 10.059-7.13l.135-49.543c.009-6.303-4.464-13.313-10.007-15.67l-8.098-3.43-2.267-10.745c-.908-5.913-4.269-9.512-7.181-10.757l-35.158-14.927c-4.083-1.727-6.035-.663-7.504 2.83l-1.214 10.969-9.549-4.06Z"/>
  <path fill="#1C3260" d="M177.132 259.001a4.9 4.9 0 0 0-.584-.173c-.092-.025-.184-.042-.276-.064a6.952 6.952 0 0 0-.693-.109c-.075 0-.141-.025-.2-.025h-.309c-.1 0-.2-.013-.292 0-.075 0-.125.012-.192.025-.116.004-.242.021-.35.03l-.167.042a8.179 8.179 0 0 1-.342.105l-.125.055c-.167.051-.301.127-.451.212l5.742-3.371.025-.013c.125-.072.242-.13.367-.185l.042-.014.158-.046c.059-.025.109-.055.175-.072l.142-.029.167-.038.092-.021c.092-.022.175-.022.275-.038.059 0 .117-.017.176-.017h.3c.1 0 .2 0 .309.012h.058l.159.021c.209.022.426.06.668.098l.141.029.142.055c.176.038.359.097.543.152.117.03.217.059.309.093.292.102.592.215.918.355l35.151 14.909c.201.089.376.178.576.292.075.021.142.072.209.109.133.072.242.14.375.22.084.055.167.11.259.165.1.076.209.148.325.22.101.075.184.161.284.228.1.059.201.143.292.228l.126.101.116.109c.192.17.384.348.568.533l.1.102.033.051c.142.143.284.291.409.447.059.042.1.102.151.161l.008.007c.05.06.092.127.133.187.126.135.234.274.343.43l.025.018c.033.059.075.114.108.172.109.14.209.283.309.428l.042.075c.033.059.083.135.133.215.075.123.142.22.217.339l.084.148a6.574 6.574 0 0 0 .292.523c.033.08.083.156.108.233.042.092.092.193.134.291.033.068.075.135.1.195.042.092.075.201.125.312.05.113.1.227.15.35.025.055.05.097.075.156.025.089.067.207.117.322.059.151.1.295.159.451a.88.88 0 0 0 .058.164c.017.094.05.182.075.284.059.224.134.439.192.676.009.075.042.148.059.224l.041.178c.109.447.209.928.276 1.423l2.261 10.736 8.112 3.442c.326.144.651.3.977.473.108.059.242.139.342.204.209.108.417.227.609.366.142.077.259.174.392.266.184.119.351.241.543.393.125.089.259.19.384.312.117.081.225.17.325.258l.134.119c.325.279.642.578.951.895l.084.076.016.025c.343.36.676.74.994 1.132.183.229.367.457.55.702l.025.051c.059.075.125.16.184.253.142.194.284.384.409.578a.853.853 0 0 1 .092.157c.066.101.117.189.2.291.083.156.167.291.267.427.042.097.083.194.134.27.066.131.133.245.191.359.059.092.117.186.159.275.075.148.134.282.209.426.058.123.125.24.175.36.025.059.05.096.067.138.1.229.192.457.292.672.042.098.067.181.108.258l.009.05c.142.346.267.697.375 1.061v.02c.059.111.084.216.109.322.075.287.167.566.242.844v.025c.108.448.192.905.258 1.344l.042.114c.025.216.05.423.059.625 0 .135.025.258.033.389.033.375.042.756.042 1.123l-.109 49.552c-.025 3.378-1.327 5.864-3.388 7.081-1.911 1.114-3.814 2.242-5.742 3.362 2.07-1.216 3.372-3.7 3.38-7.073l.134-49.543c0-.376-.025-.756-.042-1.136-.017-.135-.042-.279-.05-.418a6.617 6.617 0 0 0-.092-.697 20.061 20.061 0 0 0-.259-1.36c-.041-.135-.075-.258-.125-.389-.067-.27-.133-.545-.217-.815a17.5 17.5 0 0 0-.4-1.103c-.042-.083-.067-.177-.126-.274-.091-.262-.217-.536-.333-.798-.059-.122-.126-.249-.184-.367a17.483 17.483 0 0 0-.342-.685c-.067-.131-.142-.244-.209-.371-.125-.229-.259-.436-.392-.66-.084-.117-.15-.241-.234-.363-.133-.236-.3-.464-.467-.697-.059-.08-.117-.172-.192-.253-.234-.312-.451-.616-.709-.925l-.034-.022a1.598 1.598 0 0 0-.192-.223c-.217-.245-.425-.498-.642-.73l-.084-.072a20.73 20.73 0 0 0-.96-.913c-.167-.144-.308-.257-.467-.397-.133-.092-.25-.207-.392-.304-.167-.14-.351-.253-.526-.384-.133-.089-.267-.178-.401-.27a7.69 7.69 0 0 0-.592-.359c-.125-.069-.242-.131-.359-.212-.325-.165-.643-.333-.976-.473l-8.104-3.43-2.27-10.745a18.56 18.56 0 0 0-.284-1.427 3.103 3.103 0 0 0-.092-.384 9.753 9.753 0 0 0-.2-.714c-.042-.131-.083-.275-.133-.406a3.029 3.029 0 0 0-.151-.464c-.066-.161-.116-.325-.183-.486l-.15-.338c-.075-.177-.142-.337-.217-.507-.05-.101-.117-.198-.151-.304-.083-.16-.175-.325-.258-.485-.05-.085-.092-.177-.142-.254-.1-.173-.209-.359-.317-.532l-.1-.169c-.117-.173-.242-.351-.351-.516l-.133-.16c-.134-.198-.284-.38-.426-.558l-.05-.075c-.059-.072-.134-.148-.192-.216-.134-.143-.25-.283-.376-.418l-.15-.131a4.472 4.472 0 0 0-.576-.553 1.709 1.709 0 0 0-.217-.186c-.117-.101-.217-.173-.317-.262-.092-.067-.175-.143-.275-.202-.109-.077-.217-.161-.326-.237a4.48 4.48 0 0 0-.25-.165c-.125-.063-.251-.148-.376-.211-.075-.037-.15-.088-.217-.127a4.935 4.935 0 0 0-.576-.27l-35.151-14.926a10.76 10.76 0 0 0-.927-.351c-.083-.029-.175-.063-.258-.076Z"/>
  <path fill="#D1F0FA" d="M195.519 292.209c-13.722-5.824-24.859 2.078-24.909 17.642-.033 15.577 11.054 32.919 24.758 38.743 13.704 5.821 24.858-2.094 24.9-17.666.034-15.556-11.045-32.898-24.749-38.719Z"/>
  <path fill="#5F747F" d="M195.469 301.642c-6.829-2.915-12.668-.76-15.222 5.613-2.57 6.4-.998 14.956 4.067 22.323l1.83-1.5c-5.048-7.349-5.057-14.445-3.377-18.639 1.681-4.173 5.889-7.627 12.702-4.726v-3.071Z"/>
  <path fill="#2C5098" d="M195.499 296.47c-11.615-4.92-21.088 1.791-21.121 14.986-.033 13.194 9.389 27.947 21.004 32.872 11.624 4.938 21.096-1.791 21.138-14.986.033-13.181-9.398-27.93-21.021-32.872Z"/>
  <path fill="#D1F0FA" d="M195.502 299.547c-10.128-4.287-18.383 1.554-18.416 13.063-.042 11.489 8.188 24.345 18.299 28.645 10.136 4.299 18.383-1.571 18.416-13.055.025-11.514-8.172-24.353-18.299-28.653Z"/>
  <path fill="#2C5098" d="M195.392 339.151c-2.808-1.191-5.583-3.192-8.019-5.765l1.338-2.128c2.039 2.158 4.335 3.814 6.689 4.819l-.008 3.074Zm-11.078-9.573c-5.065-7.367-6.637-15.923-4.067-22.323 2.554-6.373 8.393-8.528 15.222-5.613v3.071c-6.813-2.901-11.021.553-12.702 4.726-1.68 4.194-1.671 11.29 3.377 18.639l-1.83 1.5Z"/>
  <path fill="#D1F0FA" d="M168.361 286.773v-6.09l-10.958-4.655v6.099l10.958 4.646Z"/>
  <path fill="#49BDC5" d="M335.259 239.027v84.912c0 2.742 1.838 3.244 1.838 3.244l95.328 39.842c3.308.566 2.948-2.598 2.948-2.598v-84.118c0-3.095-2.029-3.552-2.029-3.552l-95.049-39.71s-3.036-1.28-3.036 1.98Z"/>
  <path fill="#286D9E" d="m442.185 360.954-8.1 5.962c1.18-.376 1.241-1.928 1.241-1.928l.047-84.545 7.278-5.427v84.794s.101.773-.466 1.144Z"/>
  <path fill="#256FA4" d="M433.929 277.061s1.464.743 1.451 3.387l7.278-5.427c0-1.917-.951-2.94-1.511-3.362l-7.218 5.402Z"/>
  <path fill="#3F7BA6" d="M441.173 271.689a2.28 2.28 0 0 0-.448-.304l-95.057-39.753s-1.837-1.073-3.712.194l-5.726 4.363s-.971.515-.897 2.024c0 0 .308-2.049 2.911-1.183l95.681 40.027 7.248-5.368Z"/>
  <path fill="#49BDC5" d="m416.538 360.368 3.725 18.165-25.771-27.372 22.046 9.207Z"/>
  <path fill="#286D9E" d="m420.262 378.533 5.098-3.426-2.316-12.01-6.503-2.728 3.721 18.164Z"/>
  <path fill="#fff" d="m422.847 304.201.007-5.272-77.599-32.615v5.765l77.592 32.122Zm0 14.824.007-5.266-77.599-32.624v5.774l77.592 32.116Zm0 14.816.007-5.258-77.599-32.624v5.779l77.592 32.103Z"/>
  <path fill="#4BBADD" d="M10.14 133.503v74.424c0 2.396 1.607 2.83 1.607 2.83l64.682 27.087c2.897.485 2.579-2.273 2.579-2.273v-73.735c0-2.704-1.794-3.101-1.794-3.101l-64.42-26.977s-2.654-1.11-2.654 1.745Z"/>
  <path fill="#28969E" d="m90.082 229.798-12.207 7.949c1.036-.333 1.08-1.694 1.08-1.694l.045-74.09 11.484-7.523v74.337s.09.684-.401 1.021Z"/>
  <path fill="#3F9FA6" d="M20.327 124.688a763.641 763.641 0 0 1-6.963 4.701L11 131.002s-.86.461-.804 1.792c0 0 .271-1.792 2.57-1.036l64.98 27.226s1.262.663 1.262 2.982l11.486-7.488c0-2.403-1.71-3.177-1.71-3.177l-64.476-27.04s-1.878-.987-3.981.427Z"/>
  <path fill="#3DA4AB" d="M88.948 151.385s1.474.519 1.474 2.863L79 161.966c.01-2.321-1.259-2.983-1.259-2.983l11.209-7.598Z"/>
  <path fill="#fff" d="M49.342 162.675c-7.005-2.825-12.872-.075-14.327 6.146a13.333 13.333 0 0 0-3.693-2.319c-5.046-2.031-9.188.524-9.243 5.727-.01 1.204.214 2.459.596 3.692-.783-.63-1.622-1.153-2.5-1.504-3.805-1.545-6.93.385-6.966 4.304-.038 3.924 3.021 8.35 6.818 9.896l47.465 19.028c4.748 1.098 8.413-1.686 8.45-6.814.056-5.701-4.393-12.138-9.933-14.381-.867-.346-1.698-.574-2.509-.68.121-.722.196-1.495.205-2.285.075-8.253-6.352-17.566-14.363-20.81Z"/>
  <path fill="#42C0D5" d="M10.14 9.578V83.99c0 2.411 1.607 2.834 1.607 2.834l64.682 27.078c2.897.502 2.579-2.252 2.579-2.252V37.919c0-2.724-1.794-3.113-1.794-3.113L12.794 7.83S10.14 6.705 10.14 9.577Z"/>
  <path fill="#28969E" d="m90.082 105.86-12.207 7.957c1.036-.329 1.08-1.685 1.08-1.685l.045-74.1 11.484-7.53v74.353s.09.676-.401 1.005Z"/>
  <path fill="#3F9FA6" d="M20.327.767a1096.34 1096.34 0 0 1-6.963 4.693L11 7.07s-.86.469-.804 1.79c0 0 .271-1.794 2.57-1.038l64.98 27.238s1.262.663 1.262 2.977l11.486-7.5c0-2.387-1.71-3.172-1.71-3.172L24.308.332s-1.878-.984-3.981.435Z"/>
  <path fill="#3DA4AB" d="M88.948 27.446s1.474.532 1.474 2.877L79 38.035c.01-2.314-1.259-2.977-1.259-2.977l11.209-7.612Z"/>
  <path fill="#fff" d="M25.759 31.122c-4.362-1.768-7.952.444-7.999 4.955-.046 4.507 3.47 9.6 7.85 11.361 2.8 1.132 5.283.626 6.706-1.064l24.378 18.2c-.53.883-.837 1.985-.846 3.264-.01.752.084 1.508.251 2.278l-24.006-1.538c-1.376-2.83-3.823-5.33-6.64-6.459-4.363-1.773-7.953.452-8 4.955-.046 4.516 3.47 9.6 7.841 11.361 4.38 1.77 7.962-.442 8.018-4.954 0-.185-.02-.375-.02-.574l24.77 1.572c1.423 2.086 3.413 3.843 5.636 4.739 4.372 1.765 7.943-.457 8-4.968.055-4.507-3.46-9.588-7.842-11.358-1.562-.642-3.041-.751-4.278-.443L33.58 43.038a5.44 5.44 0 0 0 .028-.552c.047-4.511-3.47-9.597-7.85-11.363Zm97.565 132.742 1.39.576v-2.872l1.97 3.688 1.715.71-2.03-3.611c.578.097.863.083 1.187-.057.518-.222.772-.705.772-1.456 0-.772-.274-1.525-.792-2.175-.487-.618-1.025-.983-2.05-1.408l-2.162-.895v7.5Zm1.39-3.342v-2.253l.62.257c.649.269 1.004.487 1.228.772.243.294.365.639.365 1.004 0 .792-.457.948-1.532.502l-.681-.282Zm4.639 5.839 4.029 1.669v-1.329l-2.639-1.093v-1.746l2.527 1.047v-1.33l-2.527-1.047v-1.766l2.639 1.093v-1.329l-4.029-1.669v7.5Zm-8.47-12.419 2.441-.398v2.819l-2.441-2.421Z"/>
  <path fill="#fff" d="m123.031 154.131 5.645 2.338.169.78-.169.624-5.645-2.339v-1.403Zm6.322 5.659v-1.094l.709.243.694.338v1.094l-1.403-.581Z"/>
  <path fill="#fff" d="m128.677 156.469-.003 1.4c.167.07.357.226.477.393.119.166.201.388.205.557v.034l1.401.613a1.667 1.667 0 0 0 0-.1c-.013-.551-.237-1.158-.626-1.7-.39-.543-.908-.97-1.454-1.197Zm7.159 13.988-2.441.398v-2.819l2.441 2.421Z"/>
  <path fill="#fff" d="m133.827 170.327-8.425-3.49-.253-.814.253-.589 8.425 3.489v1.404Z"/>
  <path fill="#fff" d="M123.323 163.841v.1c.014.551.237 1.158.627 1.7.39.543.908.97 1.453 1.197l.004-1.401a1.215 1.215 0 0 1-.477-.392 1.49 1.49 0 0 1-.216-.605l-1.391-.599Z"/>
  <path fill="#F69575" d="M53.745 309.768s.069 13.717 1.27 27.385l-18.094-2.989s2.658-6.253-1.094-11.822l17.918-12.574Z"/>
  <path fill="#DE7C67" d="M42.734 324.716c-.713-2.14-.889-4.338-.957-6.546l11.968-8.402s.059 9.623.782 20.771c-4.426.078-10.269-1.202-11.793-5.823Z"/>
  <path fill="#F7906E" d="m64.853 324.824.811-2.98 1.906-10.982c.234-1.387.058-3.175-.372-4.533-.478-1.466-.84-3.019-.625-4.631 1.085-7.875-3.625-11.802-3.625-11.802-5.47-6.761-16.824-5.862-16.824-5.862-5.881.81-11.03 3.097-13.932 8.138-2.647 4.563-4.074 10.151-2.481 15.271 1.748 5.608 5.11 9.994 9.545 13.981 2.833 2.559 5.735 2.882 9.428 4.162 2.59.889 7.513 1.426 10.268 1.455 1.437 0 5.442-.508 5.901-2.217Z"/>
  <path fill="#F7906E" d="M29.252 293.081c2.755-5.042 7.581-7.347 13.11-8.178 0 0 10.68-.938 15.809 5.813 0 0 4.416 3.908 3.36 11.783-.214 1.602.118 3.165.558 4.621.4 1.358.576 3.166.342 4.524 0 0-.196 1.172-.45 2.745-1.28-.332-2.306-.43-3.693.391-4.133 2.442-3.185-2.609-3.84-4.572-.127-.352-.488-.509-.82-.343-2.032.978-2.247 2.209-2.286 4.29-.127 4.093-5.765 6.204-8.608 3.194.05-.312-.098-.654-.518-.605-3.908.469-3.624 4.054-4.924 6.761a10.936 10.936 0 0 1-1.504-1.202c-4.153-3.967-7.299-8.344-8.92-13.942-1.485-5.12-.127-10.698 2.384-15.28Z"/>
  <path fill="#8B3A1A" d="M43.956 282.627c-5.032.664-9.8 2.452-13.59 6.077-1.798 1.709-3.508 4.132-4.387 6.458-2.873 7.689-1.339 17.732 4.748 23.624 0 0 5.06 5.305 5.686 7.982.508 2.188 3.556 1.622 5.168 1.084 4.075-1.358 5.872-9.105 5.53-13.981-.146-1.876.254-3.82 2.54-3.683 0 0 3.127.02 3 2.267l1.534-.567-.616-5.647c-.273-2.54.508-3.302 2.462-4.143l1.7-6.829s11.773-3.038 9.057-12.418c0 0-.88 1.27-4.26 2.003 0 0 4.583-1.25-.83-9.653 0 0-6.155 4.28-17.742 7.426Z"/>
  <path fill="#F7906E" d="M52.133 317.261c-.44.391-1.036.636-1.778.665-2.013.088-3.83-1.69-4.025-3.986-.196-2.316 1.29-4.25 3.321-4.348.948-.039 1.866.332 2.58.977 1.026.967 1.172 2.833 1.025 4.133-.117 1.055-.459 1.963-1.123 2.559Z"/>
  <path fill="#EB7963" d="M50.599 311.683c-.195-1.212-2.58.117-2.15.762.235.381.675.645 1.036.899.47.342.733.684.83 1.26l-.02.332c-.302.254-1.416-.869-1.66-1.114-.47-.439-.596-1.289-.42-1.895.185-.664.605-1.006 1.29-1.006.556 0 1.103 0 1.133.693l-.04.069Z"/>
  <path fill="#EB7963" d="M49.896 312.992c.234-.264.498-.088.772.098.244.156.4.39.478.674.186.625.147 1.475-.175 2.042a1.503 1.503 0 0 1-1.26.781c-.743.03-1.007-.605-1.076-1.231-.02-.166-.058-.557.098-.664.176-.137.322.127.44.244.176.147.42.196.645.196.42.009.82-.225 1.055-.557l.107-.205c.02.41 0 .498-.049.283a3.922 3.922 0 0 0-.156-.283c-.196-.264-.498-.44-.704-.704-.088-.117-.293-.528-.175-.674"/>
  <path fill="#A2D9CD" d="M0 619.879C0 636.517 30.307 650 67.687 650c37.37 0 67.677-13.483 67.677-30.121 0-16.629-30.307-30.121-67.677-30.121C30.307 589.758 0 603.25 0 619.879Z"/>
  <path fill="#1A191A" d="m99.772 623.494-2.55-.156c-.88-.137-.86 1.24-.987 1.299-2.677 1.045-5.031 1.866-6.038 1.905 0 0-4.719-.606-5.237-2.042l.665-8.764c4.2 1.642 7.923-1.465 7.923-1.465l16.521-1.055c3.869 0 4.456.869 4.456.869s3.409 5.09-14.753 9.409Zm-58.347-8.158-2.54-.156c-.87-.137-.87 1.231-.987 1.28-2.667 1.045-5.022 1.866-6.048 1.914 0 0-4.718-.605-5.227-2.042l.665-8.773c4.2 1.651 7.923-1.446 7.923-1.446l16.522-1.055c3.868 0 4.455.86 4.455.86s3.41 5.1-14.763 9.418Z"/>
  <path fill="#2E7BA2" d="M48.02 522.999c5.1-23.8 6.624-78.952 6.624-78.952s-4.094-5.422-18.798-6.37c-14.733-.947-13.727 8.119-13.658 6.927 0 0 .02 39.041 6.77 77.467 0 0 10.484 7.23 19.062.928Z"/>
  <path fill="#2E7BA2" d="M22.334 447.32c-1.436-9.858 1.564-19.794 3.107-29.749h44.786a8915.13 8915.13 0 0 0 5.852 19.354s1.915 22.579-17.263 25.285c0 0-33.433 5.803-36.482-14.89Zm3.967 161.109s7.982 2.823 13.6-2.756c2.1-2.071 8.744-82.781 8.744-82.781.89-12.789-16.53-12.77-16.53-12.77s-8.276 11.773-7.641 25.236c0 0-1.192 29.75 1.827 73.071Z"/>
  <path fill="#448BB1" d="M56.314 429.119s12.75 21.699 4.925 35.895c-7.846 14.186-40.917-1.251-38.885-17.684 2.237-18.026 18.553-25.832 33.96-18.211Z"/>
  <path fill="#F69575" d="M65.469 401.45c2.071 7.367 10.61 35.475 10.61 35.475-23.399 22.061-53.618 4.563-53.91 1.231-.372-3.986 4.093-19.237 4.884-35.69 0 0 8.354-12.828 38.416-1.016Z"/>
  <path fill="#448BB1" d="M93.626 518.876c-2.491-24.22-19.735-86.015-19.735-86.015s-5.041-4.631-19.335-1.007c-14.313 3.635-15.847 22.286-16.16 21.133 0 0 16.62 39.11 38.739 73.569 0 0 10.688 5.461 16.491-7.68Z"/>
  <path fill="#448BB1" d="M97.31 612.424c.224-2.96-3.684-94.671-3.684-94.671-2.677-11.539-17.742-3.732-17.742-3.732-1.602 7.591-4.24 11.44-5.276 26.867-.43 6.233 12.34 73.539 12.77 77.486 0 0 10.502-.224 13.932-5.95Z"/>
  <path fill="#E68368" d="M10.2 345.194s-2.316 38.983-.84 54.722c0 0 0 7.152 12.593 10.728 0 0 4.582-43.389 8.315-62.773 0 0-7.445-14.352-20.068-2.677Z"/>
  <path fill="#E68368" d="M24.26 355.267c-5.169 2.188-11.139-.186-13.347-5.325-2.198-5.109.206-11.04 5.374-13.228 5.168-2.189 11.148.195 13.346 5.324 2.208 5.11-.195 11.05-5.374 13.229Z"/>
  <path fill="#484AA6" d="M18.983 334.164s-9.203 2.13-9.701 12.808l-1.485 38.426s9.193 6.096 21.103 5.07c0 0 13.756-51.312-9.917-56.304Z"/>
  <path fill="#448BB1" d="M72.982 427.976s7.856 12.662 0 26.867c-7.855 14.186-31.791 9.018-31.87-9.369-.058-18.153 16.473-25.099 31.87-17.498Z"/>
  <path fill="#484AA6" d="M34.205 332.307s-9.995.362-15.222 1.857c-4.729 3.468-4.65 10.239-3.742 15.378 1.75 9.828 3.518 19.745 4.436 29.691.39 4.406 1.495 13.365 1.827 17.772.313 4.279 1.66 6.624 6.048 8.89 3.331 1.71 5.793.362 9.418.45 9.213.244 18.319-.762 27.444-1.896.381-.039 3.293 4.67 10.923-.205l4.142-45.137s2.257-11.793-8.412-15.711c0 0-7.503-4.699-15.74-7.493 0 0-14.332.361-21.122-3.596Z"/>
  <path fill="#484AA6" d="M76.275 393.976c.195 15.143 4.924 53.921 4.924 53.921-13.229 15.075-50.931 7.054-61.63-5.354-2.628-3.029 1.193-28.324 2.003-44.767 0 0 24.64-15.622 54.703-3.8Z"/>
  <path fill="#F7906E" d="M167.85 374.612s1.426-3.723-3.527-5.091c-7.006 4.456-17.538 6.576-17.538 6.576-12.124 4.054-37.077-1.124-48.43-3.469-12.76-2.657-18.67 11.773-6.438 16.492 22.891 8.823 59.177-.762 76.06-14.049"/>
  <path fill="#F69575" d="M175.744 363.738c-1.583-.587-1.329-1.652-2.912-.587-1.788 1.231-3.976 1.505-5.129 2.404-2.032 1.544-8.529 9.057-.029 9.721 1.983.147 8.851 2.276 10.258-.869 2.101-4.632 1.437-3.01 0-8.774l-2.188-1.895Z"/>
  <path fill="#484AA6" d="M64.658 344.5c10.64-3.556 21.025 10.132 21.025 10.132l21.152 18.495s-5.373 19.247-15.133 22.031c0 0-24.25-12.701-32.544-27.366 0 0-6.097-8.51 5.5-23.292Z"/>
  <path fill="#F69575" d="m172.832 363.151 10.181-5.539s2.247 2.091-8.315 7.757l-1.866-2.218Z"/>
</svg>
