<svg xmlns="http://www.w3.org/2000/svg" width="48" height="48" fill="none" viewBox="0 0 48 48">
  <path fill="#273F49" d="M24 48c-3.25 0-6.36-.633-9.328-1.898-2.969-1.266-5.524-2.97-7.664-5.11-2.14-2.14-3.844-4.695-5.11-7.664A23.544 23.544 0 0 1 0 24c0-3.25.633-6.36 1.898-9.328 1.266-2.969 2.97-5.524 5.11-7.664 2.14-2.14 4.695-3.844 7.664-5.11A23.544 23.544 0 0 1 24 0c3.25 0 6.36.633 9.328 1.898 2.969 1.266 5.524 2.97 7.664 5.11 2.14 2.14 3.844 4.695 5.11 7.664A23.545 23.545 0 0 1 48 24c0 3.25-.633 6.36-1.898 9.328-1.266 2.969-2.97 5.524-5.11 7.664-2.14 2.14-4.695 3.844-7.664 5.11A23.545 23.545 0 0 1 24 48ZM19.5 6c-3.719 0-6.898 1.32-9.54 3.96C7.32 12.603 6 15.782 6 19.5c0 3.719 1.32 6.898 3.96 9.54C12.603 31.68 15.782 33 19.5 33c3.719 0 6.898-1.32 9.54-3.96C31.68 26.397 33 23.218 33 19.5c0-3.719-1.32-6.898-3.96-9.54C26.397 7.32 23.218 6 19.5 6Zm4.406 14.203c.219 1.5-.086 2.875-.914 4.125-.828 1.25-1.976 2.078-3.445 2.485-1.594.406-3.11.195-4.547-.633-1.438-.828-2.375-2.04-2.813-3.633-.343-1.344-.242-2.64.305-3.89a5.867 5.867 0 0 1 2.602-2.86c-.219-1.5.086-2.875.914-4.125.828-1.25 1.976-2.078 3.445-2.485 1.594-.406 3.11-.195 4.547.633 1.438.828 2.375 2.04 2.813 3.633.343 1.344.242 2.64-.305 3.89a5.867 5.867 0 0 1-2.602 2.86Zm-6.703-2.11c-.781.22-1.383.688-1.805 1.407a2.839 2.839 0 0 0-.304 2.273 2.955 2.955 0 0 0 1.406 1.829 2.839 2.839 0 0 0 2.273.304 2.955 2.955 0 0 0 1.829-1.406 2.886 2.886 0 0 0 .304-2.297c-.062-.219-.164-.36-.304-.422a1.625 1.625 0 0 0-.54-.117 1.252 1.252 0 0 1-.562-.164c-.156-.094-.383-.29-.68-.586a4.341 4.341 0 0 0-.843-.68c-.266-.156-.524-.203-.774-.14Zm6.703-3.89c-.218-.781-.687-1.383-1.406-1.805a2.886 2.886 0 0 0-2.297-.304 2.868 2.868 0 0 0-1.64 1.148A3.061 3.061 0 0 0 18 15.187c.719.126 1.719.563 3 1.313.719.406 1.25.75 1.594 1.031a3.02 3.02 0 0 0 1.172-1.43c.25-.609.297-1.242.14-1.898Z"/>
</svg>
