<svg xmlns="http://www.w3.org/2000/svg" width="48" height="48" fill="none" viewBox="0 0 48 48">
  <path fill="#273F49" d="M48 46c0 .542-.148 1.01-.445 1.406-.297.396-.649.594-1.055.594-.406 0-.758-.198-1.055-.594C45.148 47.01 45 46.542 45 46V19.687L28.453 30.75C27.203 31.583 25.72 32 24 32c-1.719 0-3.203-.417-4.453-1.25L1.828 18.937C.61 18.105 0 17.116 0 15.97s.61-2.115 1.828-2.906L19.547 1.25C20.797.417 22.28 0 24 0c1.719 0 3.203.417 4.453 1.25l17.719 11.813c1.062.708 1.656 1.583 1.781 2.624.031.042.047.126.047.25V46ZM29.953 34.75 39 28.687V37.5c0 1.792-1.46 3.323-4.383 4.594C31.695 43.364 28.157 44 24 44c-4.156 0-7.695-.635-10.617-1.906C10.46 40.823 9 39.292 9 37.5v-8.813l9.047 6.063C19.297 35.583 21.28 36 24 36c2.719 0 4.703-.417 5.953-1.25Z"/>
</svg>
