<svg xmlns="http://www.w3.org/2000/svg" width="48" height="48" fill="none" viewBox="0 0 48 48">
  <path fill="#273F49" d="M44.367 4.636 48 48c-2.047 0-4.055-.648-6.023-1.943-3.125-2.068-6.196-3.102-9.211-3.102-3.532 0-6.453 1.681-8.766 5.045-2.313-3.364-5.234-5.045-8.766-5.045-3.015 0-6.086 1.034-9.21 3.102C4.023 47.352 2.053 48 .116 48H0L3.633 4.636C7.133 1.75 10.898.306 14.93.306c3.64 0 6.664 1.205 9.07 3.614C26.406 1.511 29.43.307 33.07.307c4.032 0 7.797 1.443 11.297 4.33ZM32.766 38.284c2.015 0 3.828.324 5.437.972 1.61.647 3.64 1.71 6.094 3.187L41.39 7.636c-2.672-1.772-5.547-2.659-8.625-2.659-3.5 0-6.422 1.602-8.766 4.807-2.344-3.205-5.266-4.807-8.766-4.807-3.078 0-5.953.887-8.625 2.66L3.703 42.442c1.64-.977 2.934-1.716 3.879-2.216.945-.5 2.106-.949 3.48-1.346a14.945 14.945 0 0 1 4.172-.597c3.157 0 6.079 1.227 8.766 3.682 2.688-2.455 5.61-3.682 8.766-3.682Zm.937-1.16-1.289-30.92c-3.297.091-6.102 1.853-8.414 5.285-2.375-3.523-5.297-5.285-8.766-5.285-2.75 0-5.375.75-7.875 2.25l-2.671 32.08c1.937-1.16 3.722-2.023 5.355-2.59 1.633-.57 3.363-.853 5.191-.853 3.266 0 6.188 1.159 8.766 3.477 2.688-2.432 5.61-3.59 8.766-3.477l.937.034Z"/>
</svg>
