<svg xmlns="http://www.w3.org/2000/svg" width="37" height="48" fill="none" viewBox="0 0 37 48">
  <path fill="#273F49" d="M26.208 48H3.083c-.835 0-1.557-.297-2.168-.89C.305 46.515 0 45.812 0 45V3C0 2.156.297 1.445.891.867 1.485.29 2.216 0 3.083 0h30.834c.867 0 1.597.29 2.192.867.594.578.891 1.29.891 2.133v34.5c0 2.906-1.052 5.383-3.156 7.43-2.103 2.047-4.649 3.07-7.636 3.07Zm-1.517-6c.85 0 1.574-.297 2.168-.89.594-.594.891-1.305.891-2.133 0-.829-.297-1.532-.891-2.11-.595-.578-1.317-.867-2.168-.867a3.08 3.08 0 0 0-2.192.867c-.61.578-.916 1.281-.916 2.11 0 .828.306 1.539.916 2.132a3.03 3.03 0 0 0 2.192.891ZM3.083 33.75v1.5a.72.72 0 0 0 .217.54c.145.14.33.21.554.21h2.313v2.25a.72.72 0 0 0 .216.54c.145.14.33.21.554.21H8.48c.225 0 .41-.07.554-.21a.72.72 0 0 0 .217-.54V36h2.313c.224 0 .409-.07.553-.21a.72.72 0 0 0 .217-.54v-1.5a.72.72 0 0 0-.216-.54.762.762 0 0 0-.555-.21H9.25v-2.25a.72.72 0 0 0-.217-.54.762.762 0 0 0-.554-.21H6.938c-.225 0-.41.07-.555.21a.72.72 0 0 0-.216.54V33H3.854c-.225 0-.41.07-.554.21a.72.72 0 0 0-.217.54ZM30.833 7.5c0-.406-.152-.758-.457-1.055A1.502 1.502 0 0 0 29.292 6H7.708c-.417 0-.779.148-1.084.445A1.423 1.423 0 0 0 6.167 7.5v15c0 .406.152.758.457 1.055.305.297.667.445 1.084.445h21.584c.417 0 .778-.148 1.084-.445.305-.297.457-.649.457-1.055v-15Zm.024 22.5c-.85 0-1.581.29-2.192.867-.61.578-.915 1.281-.915 2.11 0 .828.305 1.539.915 2.132.61.594 1.341.891 2.192.891.852 0 1.574-.297 2.168-.89.595-.594.892-1.305.892-2.133a2.83 2.83 0 0 0-.892-2.11c-.594-.578-1.316-.867-2.168-.867Z"/>
</svg>
