<svg xmlns="http://www.w3.org/2000/svg" width="56" height="54" fill="none" viewBox="0 0 56 54">
  <path fill="#25B99A" d="M50.764 0H4.934A4.935 4.935 0 000 4.935v43.352a4.935 4.935 0 004.935 4.935h45.83a4.935 4.935 0 004.934-4.935V4.935A4.935 4.935 0 0050.764 0z"/>
  <path fill="#fff" d="M11.539 38.332h4.46v-9.214l6.317 9.214h5.503l-6.512-8.889c1.856-.456 2.767-.879 3.81-1.758 1.66-1.4 2.474-3.289 2.474-5.698 0-2.474-.88-4.526-2.54-5.926-1.563-1.335-3.289-1.79-6.577-1.79h-6.935v24.061zm4.46-12.568v-7.229h1.986c2.084 0 3.224.228 3.94.847.782.619 1.172 1.563 1.172 2.735 0 2.54-1.465 3.647-4.916 3.647h-2.182zM30.88 38.332h12.925v-4.265H35.34v-5.6h8.107V24.2H35.34v-5.666h8.465V14.27H30.88v24.062zM3.707 9.746l7.831-4.522v9.044L3.707 9.746z"/>
  <path fill="#fff" d="M10.598 7.498h18.11l.544 2.274L28.708 12h-18.11V7.498zM30.88 17.251v-3.51l2.273-.163 2.228.164v3.509H30.88z"/>
  <path stroke="#fff" stroke-width="4.498" d="M28.706 9.743a4.494 4.494 0 013.096 1.267 4.494 4.494 0 011.335 3.283"/>
  <g>
    <path fill="#fff" d="M51.678 42.856l-7.831 4.521v-9.043l7.831 4.522z"/>
    <path fill="#fff" d="M45.232 45.108H18.206l-.812-2.274.812-2.228h27.026v4.502z"/>
    <path fill="#fff" d="M11.537 38.258a8.55 8.55 0 000 .32v.002a6.672 6.672 0 002.01 4.621 6.672 6.672 0 004.662 1.909l.012-4.498a2.321 2.321 0 01-1.53-.625c-.404-.525-.639-1.08-.692-1.655l-4.462-.074z"/>
  </g>
</svg>
