<?xml version="1.0" encoding="UTF-8" standalone="no"?>
<svg
   width="20"
   height="13"
   fill="none"
   viewBox="0 0 20 13"
   version="1.1"
   id="svg20"
   sodipodi:docname="Vector(4).svg"
   xmlns:inkscape="http://www.inkscape.org/namespaces/inkscape"
   xmlns:sodipodi="http://sodipodi.sourceforge.net/DTD/sodipodi-0.dtd"
   xmlns="http://www.w3.org/2000/svg"
   xmlns:svg="http://www.w3.org/2000/svg">
  <defs
     id="defs24" />
  <sodipodi:namedview
     id="namedview22"
     pagecolor="#505050"
     bordercolor="#ffffff"
     borderopacity="1"
     inkscape:showpageshadow="0"
     inkscape:pageopacity="0"
     inkscape:pagecheckerboard="1"
     inkscape:deskcolor="#505050"
     showgrid="false" />
  <path
     fill="#ffffff"
     d="m 13.636,5.417 c 1.5,0 2.728,-1.22 2.728,-2.709 C 16.364,1.218 15.136,0 13.636,0 c -1.5,0 -2.727,1.219 -2.727,2.708 0,1.49 1.227,2.709 2.727,2.709 z m -7.272,0 c 1.5,0 2.727,-1.22 2.727,-2.709 C 9.09,1.218 7.864,0 6.364,0 4.864,0 3.636,1.219 3.636,2.708 c 0,1.49 1.228,2.709 2.728,2.709 z m 0,1.986 C 4.227,7.403 0,8.44 0,10.563 V 13 h 12.857 v -2.438 c 0,-2.121 -4.357,-3.16 -6.493,-3.16 z m 7.272,0.496 c -0.272,0 -0.46,0 -0.779,0.045 1.046,0.768 1.429,1.264 1.429,2.619 V 13 H 20 V 10.562 C 20,8.441 15.773,7.9 13.636,7.9 Z"
     id="path18" />
</svg>
